<?xml version="1.0" encoding="UTF-8" standalone="no"?>
<svg
   width="74"
   height="28"
   fill="none"
   version="1.1"
   id="svg25"
   sodipodi:docname="new-msn-logo-color-black.svg"
   inkscape:version="1.4 (e7c3feb100, 2024-10-09)"
   xmlns:inkscape="http://www.inkscape.org/namespaces/inkscape"
   xmlns:sodipodi="http://sodipodi.sourceforge.net/DTD/sodipodi-0.dtd"
   xmlns="http://www.w3.org/2000/svg"
   xmlns:svg="http://www.w3.org/2000/svg">
  <sodipodi:namedview
     id="namedview25"
     pagecolor="#505050"
     bordercolor="#eeeeee"
     borderopacity="1"
     inkscape:showpageshadow="0"
     inkscape:pageopacity="0"
     inkscape:pagecheckerboard="0"
     inkscape:deskcolor="#505050"
     inkscape:zoom="22.351351"
     inkscape:cx="37"
     inkscape:cy="23.041112"
     inkscape:window-width="1920"
     inkscape:window-height="1016"
     inkscape:window-x="0"
     inkscape:window-y="28"
     inkscape:window-maximized="1"
     inkscape:current-layer="svg25" />
  <path
     d="M15.234 22.383s-1.231 5.661 2.234 5.611c2.613-.038 4.184-3.752 1.895-9.302 0 0-1.945-.925-4.13 3.69Z"
     fill="url(#a)"
     id="path1" />
  <path
     d="M15.234 22.383s-1.231 5.661 2.234 5.611c2.613-.038 4.184-3.752 1.895-9.302 0 0-1.945-.925-4.13 3.69Z"
     fill="url(#b)"
     id="path2" />
  <path
     d="M12.978 22.297S10.2 28.21 5.926 27.994c-4.272-.216-5.334-7.74 4.075-11.23 0 0 3.883 1.507 2.976 5.533h.001Z"
     fill="url(#c)"
     id="path3" />
  <path
     d="M15.232 22.383S16.4 8.388 22.517 7.135c3.787-.776 5.481 1.534 5.481 4.485 0 4.028-4.252 6.236-6.993 7.05-3.08.913-4.742 2.358-5.773 3.714v-.001Z"
     fill="url(#d)"
     id="path5" />
  <path
     d="M12.977 22.306s.678-2.363-5.72-5.641C.86 13.385.113 9.405.01 7.109-.092 4.814.598 2.843 1.76 1.73 3.404.154 4.898-.127 7.082.06c2.902.25 5.942 3.221 7.46 7.87 2.205 6.755-1.565 14.376-1.565 14.376Z"
     fill="url(#e)"
     id="path6" />
  <path
     d="M12.977 22.297s.678-2.364-5.72-5.642C.86 13.375.113 9.395.01 7.099c-.102-2.295.588-4.266 1.75-5.378C3.404.144 4.898-.136 7.082.05c2.902.249 5.942 3.22 7.46 7.868 2.205 6.756-1.565 14.378-1.565 14.378Z"
     fill="url(#f)"
     id="path7" />
  <defs
     id="defs25">
    <radialGradient
       id="a"
       cx="0"
       cy="0"
       r="1"
       gradientUnits="userSpaceOnUse"
       gradientTransform="matrix(-2.72413 -8.52658 15.54159 -4.96533 17.746 27.995)">
      <stop
         stop-color="#FFB657"
         id="stop7" />
      <stop
         offset=".643"
         stop-color="#FF835C"
         id="stop8" />
      <stop
         offset=".961"
         stop-color="#CA2134"
         id="stop9" />
    </radialGradient>
    <radialGradient
       id="b"
       cx="0"
       cy="0"
       r="1"
       gradientUnits="userSpaceOnUse"
       gradientTransform="rotate(94.548 .426 17.642) scale(10.3454 8.7988)">
      <stop
         offset=".707"
         stop-color="#FFCD0F"
         stop-opacity="0"
         id="stop10" />
      <stop
         offset="1"
         stop-color="#FFCD0F"
         id="stop11" />
    </radialGradient>
    <radialGradient
       id="c"
       cx="0"
       cy="0"
       r="1"
       gradientUnits="userSpaceOnUse"
       gradientTransform="rotate(-71.159 25.14 12.158) scale(16.5824 10.8568)">
      <stop
         offset=".045"
         stop-color="#FFC800"
         id="stop12" />
      <stop
         offset=".257"
         stop-color="#B5BA1E"
         id="stop13" />
      <stop
         offset=".368"
         stop-color="#98BD42"
         id="stop14" />
      <stop
         offset=".587"
         stop-color="#52B471"
         id="stop15" />
      <stop
         offset=".767"
         stop-color="#018D32"
         id="stop16" />
      <stop
         offset=".878"
         stop-color="#006523"
         id="stop17" />
    </radialGradient>
    <radialGradient
       id="d"
       cx="0"
       cy="0"
       r="1"
       gradientUnits="userSpaceOnUse"
       gradientTransform="matrix(-.31812 -16.3302 19.5232 -.38032 17.442 22.799)">
      <stop
         offset=".066"
         stop-color="#BD00FF"
         id="stop18" />
      <stop
         offset="1"
         stop-color="#FF5F3D"
         id="stop19" />
    </radialGradient>
    <radialGradient
       id="e"
       cx="0"
       cy="0"
       r="1"
       gradientUnits="userSpaceOnUse"
       gradientTransform="rotate(94.968 5.683 3.287) scale(21.167 34.1452)">
      <stop
         stop-color="#3BD5FF"
         id="stop20" />
      <stop
         offset=".417"
         stop-color="#0D91E1"
         id="stop21" />
      <stop
         offset=".744"
         stop-color="#2764E7"
         id="stop22" />
      <stop
         offset="1"
         stop-color="#2052CB"
         id="stop23" />
    </radialGradient>
    <radialGradient
       id="f"
       cx="0"
       cy="0"
       r="1"
       gradientUnits="userSpaceOnUse"
       gradientTransform="matrix(-.58321 18.55704 -32.85658 -1.03262 10.71 -5.196)">
      <stop
         stop-color="#3DEEDF"
         stop-opacity=".7"
         id="stop24" />
      <stop
         offset="1"
         stop-color="#0D91E1"
         stop-opacity="0"
         id="stop25" />
    </radialGradient>
  </defs>
  <text
     xml:space="preserve"
     style="font-size:21.3333px;text-align:start;writing-mode:lr-tb;direction:ltr;text-anchor:start;fill:#242424"
     x="30.277414"
     y="25.629015"
     id="text25"><tspan
       sodipodi:role="line"
       id="tspan25"
       x="30.277414"
       y="25.629015"
       style="font-style:normal;font-variant:normal;font-weight:600;font-stretch:normal;font-size:21.3333px;font-family:FreeSans;-inkscape-font-specification:'FreeSans Semi-Bold'">wea</tspan></text>
</svg>
